<svg xmlns="http://www.w3.org/2000/svg" viewBox="0 0 800 450" width="800" height="450" role="img">
  <defs>
    <linearGradient id="bgbbeginnersguide" x1="0" y1="0" x2="1" y2="1">
      <stop offset="0%" stop-color="#12121a"/>
      <stop offset="55%" stop-color="#0c0c12"/>
      <stop offset="100%" stop-color="#1a0a10"/>
    </linearGradient>
    <radialGradient id="glbbeginnersguide" cx="50%" cy="50%" r="50%">
      <stop offset="0%" stop-color="#ff2b3b" stop-opacity=".55"/>
      <stop offset="100%" stop-color="#ff2b3b" stop-opacity="0"/>
    </radialGradient>
    <linearGradient id="fadebbeginnersguide" x1="0" y1="0" x2="0" y2="1">
      <stop offset="40%" stop-color="#07070a" stop-opacity="0"/>
      <stop offset="100%" stop-color="#07070a" stop-opacity=".92"/>
    </linearGradient>
  </defs><rect width="800" height="450" fill="url(#bgbbeginnersguide)"/><circle cx="394" cy="312" r="446" fill="url(#glbbeginnersguide)" opacity="0.41"/><circle cx="225" cy="197" r="284" fill="url(#glbbeginnersguide)" opacity="0.70"/><circle cx="530" cy="308" r="365" fill="url(#glbbeginnersguide)" opacity="0.76"/><path d="M584 0 L331 450 L334 450 L587 0 Z" fill="#ffffff" opacity="0.06"/><path d="M258 0 L124 450 L126 450 L260 0 Z" fill="#ffffff" opacity="0.14"/><path d="M854 0 L949 450 L953 450 L859 0 Z" fill="#ffffff" opacity="0.08"/><path d="M271 0 L534 450 L537 450 L274 0 Z" fill="#ffffff" opacity="0.19"/><path d="M775 0 L527 450 L530 450 L778 0 Z" fill="#ffffff" opacity="0.12"/><circle cx="246" cy="226" r="88" fill="none" stroke="#ff2b3b" stroke-opacity="0.18" stroke-width="1.5"/><circle cx="246" cy="226" r="176" fill="none" stroke="#ff2b3b" stroke-opacity="0.14" stroke-width="1.5"/><circle cx="246" cy="226" r="264" fill="none" stroke="#ff2b3b" stroke-opacity="0.10" stroke-width="1.5"/><circle cx="246" cy="226" r="352" fill="none" stroke="#ff2b3b" stroke-opacity="0.06" stroke-width="1.5"/><path d="M0 0V450 M57 0V450 M114 0V450 M171 0V450 M228 0V450 M285 0V450 M342 0V450 M399 0V450 M456 0V450 M513 0V450 M570 0V450 M627 0V450 M684 0V450 M741 0V450 M798 0V450 M855 0V450 M0 0H800 M0 57H800 M0 114H800 M0 171H800 M0 228H800 M0 285H800 M0 342H800 M0 399H800 M0 456H800" stroke="#ffffff" stroke-opacity=".035" stroke-width="1" fill="none"/><rect width="800" height="450" fill="url(#fadebbeginnersguide)"/></svg>